<svg width="401" height="215" viewBox="0 0 401 215" fill="none" xmlns="http://www.w3.org/2000/svg">
<mask id="mask0_2111_7415" style="mask-type:luminance" maskUnits="userSpaceOnUse" x="0" y="0" width="401" height="215">
<path d="M400.875 0H0.125V215H400.875V0Z" fill="white"/>
</mask>
<g mask="url(#mask0_2111_7415)">
<g opacity="0.3">
<path opacity="0.3" d="M90.093 74.3295V194.872C90.093 196.073 89.8555 197.263 89.3938 198.372C88.9323 199.482 88.256 200.489 87.4037 201.335C86.5515 202.182 85.5403 202.851 84.4283 203.305C83.3163 203.759 82.1255 203.988 80.9248 203.979H65.21C68.2712 203.979 71.2073 202.763 73.372 200.597C75.5368 198.431 76.7527 195.493 76.7527 192.43C76.7527 189.367 75.5368 186.429 73.372 184.263C71.2073 182.097 68.2712 180.881 65.21 180.881H11.6678C8.60647 180.881 5.6705 179.664 3.5058 177.498C1.34111 175.332 0.125 172.394 0.125 169.331C0.125 166.268 1.34111 163.331 3.5058 161.165C5.6705 158.999 8.60647 157.782 11.6678 157.782H40.9205C43.982 157.782 46.918 156.565 49.0825 154.399C51.2472 152.233 52.4635 149.296 52.4635 146.233C52.4635 143.169 51.2472 140.232 49.0825 138.066C46.918 135.9 43.982 134.683 40.9205 134.683H11.6678C8.60647 134.683 5.6705 133.466 3.5058 131.3C1.34111 129.134 0.125 126.197 0.125 123.134C0.125 120.071 1.34111 117.133 3.5058 114.967C5.6705 112.801 8.60647 111.584 11.6678 111.584H49.3467C52.4082 111.584 55.3442 110.368 57.5088 108.202C59.6735 106.036 60.8898 103.098 60.8898 100.035C60.8898 96.972 59.6735 94.0345 57.5088 91.8685C55.3442 89.7025 52.4082 88.4857 49.3467 88.4857H27.5475C24.4861 88.4857 21.5501 87.269 19.3854 85.103C17.2207 82.937 16.0046 79.9995 16.0046 76.9362C16.0046 73.8732 17.2207 70.9357 19.3854 68.7697C21.5501 66.6037 24.4861 65.387 27.5475 65.387H80.9248C83.322 65.3692 85.6292 66.2982 87.346 67.9727C89.0625 69.647 90.0498 71.9312 90.093 74.3295Z" fill="#F0F0F0"/>
<path opacity="0.3" d="M310.908 24.7495V145.341C310.908 146.539 311.143 147.724 311.603 148.831C312.06 149.937 312.733 150.941 313.58 151.787C314.425 152.633 315.43 153.304 316.538 153.76C317.643 154.217 318.83 154.451 320.025 154.449H335.79C332.728 154.449 329.793 153.232 327.628 151.066C325.463 148.9 324.248 145.963 324.248 142.9C324.248 139.836 325.463 136.899 327.628 134.733C329.793 132.567 332.728 131.35 335.79 131.35H389.283C392.345 131.35 395.28 130.133 397.445 127.967C399.61 125.802 400.825 122.864 400.825 119.801C400.825 116.738 399.61 113.8 397.445 111.634C395.28 109.468 392.345 108.251 389.283 108.251H360.08C357.018 108.251 354.083 107.035 351.918 104.869C349.753 102.703 348.538 99.7652 348.538 96.7022C348.538 93.639 349.753 90.7015 351.918 88.5355C354.083 86.3695 357.018 85.1527 360.08 85.1527H389.283C392.345 85.1527 395.28 83.936 397.445 81.77C399.61 79.604 400.825 76.6665 400.825 73.6035C400.825 70.5402 399.61 67.6027 397.445 65.4367C395.28 63.2707 392.345 62.054 389.283 62.054H351.638C348.575 62.054 345.64 60.8372 343.475 58.6712C341.31 56.5052 340.095 53.5677 340.095 50.5045C340.095 47.4415 341.31 44.504 343.475 42.338C345.64 40.172 348.575 38.9552 351.638 38.9552H373.453C376.515 38.9552 379.45 37.7385 381.615 35.5725C383.78 33.4065 384.995 30.469 384.995 27.4057C384.995 24.3428 383.78 21.4051 381.615 19.2392C379.45 17.0733 376.515 15.8565 373.453 15.8565H320.025C317.645 15.8515 315.358 16.7796 313.653 18.4419C311.95 20.1043 310.963 22.3685 310.908 24.7495Z" fill="#F0F0F0"/>
</g>
<path d="M316.085 197.346C316.087 199.595 315.647 201.822 314.787 203.901C313.93 205.98 312.67 207.868 311.082 209.46C309.495 211.052 307.61 212.316 305.535 213.178C303.457 214.041 301.232 214.486 298.985 214.488H74.18C72.4095 214.488 70.6563 214.139 69.0208 213.46C67.3853 212.782 65.8993 211.788 64.648 210.534C63.3968 209.281 62.4048 207.793 61.7288 206.156C61.0528 204.518 60.7058 202.764 60.708 200.992V22.554C60.708 18.9789 62.1275 15.5503 64.654 13.0223C67.1805 10.4944 70.607 9.07422 74.18 9.07422H243.233C238.788 9.21232 234.57 11.0763 231.475 14.2715C228.379 17.4666 226.648 21.742 226.648 26.192C226.648 30.6422 228.379 34.9175 231.475 38.1127C234.57 41.3077 238.788 43.1717 243.233 43.31H275.502C279.95 43.448 284.165 45.312 287.262 48.5072C290.357 51.7022 292.087 55.9777 292.087 60.4277C292.087 64.8777 290.357 69.1532 287.262 72.3482C284.165 75.5435 279.95 77.4075 275.502 77.5455H219.752C217.506 77.5455 215.282 77.988 213.208 78.848C211.133 79.7077 209.248 80.968 207.66 82.5567C206.072 84.1455 204.813 86.0317 203.953 88.1075C203.094 90.1835 202.652 92.4082 202.652 94.6552C202.652 96.902 203.094 99.1267 203.953 101.203C204.813 103.278 206.072 105.165 207.66 106.753C209.248 108.342 211.133 109.602 213.208 110.462C215.282 111.322 217.506 111.765 219.752 111.765H263.02C267.465 111.903 271.682 113.767 274.78 116.962C277.875 120.157 279.605 124.433 279.605 128.882C279.605 133.333 277.875 137.608 274.78 140.803C271.682 143.998 267.465 145.862 263.02 146.001H219.752C217.46 145.929 215.178 146.319 213.04 147.148C210.902 147.976 208.953 149.225 207.307 150.822C205.661 152.418 204.352 154.33 203.458 156.442C202.565 158.554 202.104 160.825 202.104 163.118C202.104 165.412 202.565 167.683 203.458 169.795C204.352 171.907 205.661 173.818 207.307 175.415C208.953 177.011 210.902 178.261 213.04 179.089C215.178 179.917 217.46 180.307 219.752 180.236H298.985C303.52 180.236 307.87 182.039 311.077 185.247C314.282 188.456 316.085 192.808 316.085 197.346Z" fill="#F0F0F0"/>
<path d="M130.889 69.8578C130.88 78.451 128.949 86.9333 125.237 94.6828C121.525 102.432 116.127 109.252 109.438 114.642C102.75 120.033 94.9402 123.857 86.5825 125.834C78.2245 127.812 69.5303 127.892 61.137 126.07L60.6425 125.955V116.253C49.017 115.67 37.8482 111.542 28.6357 104.424L28.1577 104.077C27.3825 103.5 26.6075 102.906 25.8655 102.279L25.6512 101.982C19.8301 93.3213 16.473 83.2398 15.9395 72.8168C15.406 62.3938 17.7162 52.0218 22.6227 42.8118C27.5292 33.6018 34.8472 25.9008 43.7927 20.5333C52.7385 15.1659 62.9748 12.3343 73.4055 12.3418H74.1145C76.3923 12.373 78.6663 12.5383 80.9248 12.8368C91.6645 14.2478 101.785 18.6757 110.112 25.607C110.54 25.937 110.952 26.3 111.348 26.663C117.426 32.0005 122.309 38.5618 125.678 45.9175C126.008 46.627 126.321 47.353 126.601 48.079C129.439 54.9885 130.895 62.3875 130.889 69.8578Z" fill="#F0F0F0"/>
<path d="M154.865 169.561L144.888 152.27L136.462 166.872L131.054 157.501L114.119 128.165L97.2001 157.501L80.2651 186.836H114.119H124.936L124.919 186.853H144.888H164.841L154.865 169.561Z" fill="#36E39B"/>
<path d="M335.807 22.5551V200.977C335.81 202.749 335.465 204.506 334.79 206.145C334.115 207.785 333.122 209.274 331.872 210.529C330.62 211.785 329.135 212.781 327.497 213.46C325.86 214.14 324.105 214.489 322.335 214.489H298.985C303.43 214.351 307.647 212.487 310.742 209.292C313.837 206.097 315.57 201.822 315.57 197.372C315.57 192.922 313.837 188.646 310.742 185.451C307.647 182.256 303.43 180.392 298.985 180.254H219.751C217.46 180.325 215.178 179.935 213.04 179.107C210.902 178.278 208.953 177.029 207.307 175.432C205.661 173.836 204.352 171.924 203.458 169.812C202.565 167.7 202.104 165.43 202.104 163.136C202.104 160.842 202.565 158.572 203.458 156.459C204.352 154.347 205.661 152.436 207.307 150.839C208.953 149.243 210.902 147.993 213.04 147.165C215.178 146.337 217.46 145.947 219.751 146.018H263.02C267.465 145.88 271.682 144.016 274.78 140.821C277.875 137.626 279.605 133.35 279.605 128.9C279.605 124.45 277.875 120.175 274.78 116.979C271.682 113.785 267.465 111.921 263.02 111.782H219.751C217.506 111.782 215.282 111.34 213.208 110.48C211.133 109.62 209.248 108.36 207.66 106.771C206.072 105.182 204.813 103.296 203.953 101.22C203.094 99.1445 202.652 96.9195 202.652 94.6728C202.652 92.4258 203.094 90.201 203.953 88.1253C204.813 86.0493 206.072 84.1633 207.66 82.5745C209.248 80.9857 211.133 79.7253 213.208 78.8655C215.282 78.0058 217.506 77.5632 219.751 77.5632H275.503C279.95 77.425 284.165 75.561 287.263 72.366C290.358 69.1707 292.087 64.8955 292.087 60.4452C292.087 55.9952 290.358 51.7197 287.263 48.5247C284.165 45.3295 279.95 43.4655 275.503 43.3275H243.233C238.788 43.1892 234.57 41.3252 231.475 38.1302C228.379 34.935 226.648 30.6597 226.648 26.2097C226.648 21.7595 228.379 17.4842 231.475 14.289C234.57 11.0939 238.788 9.2299 243.233 9.0918H322.383C325.945 9.10487 329.357 10.5286 331.872 13.0515C334.387 15.5745 335.802 18.9914 335.807 22.5551Z" fill="#F0F0F0"/>
<path d="M126.964 8.71191H158.855C158.855 9.67459 158.473 10.5978 157.793 11.2786C157.112 11.9593 156.19 12.3417 155.227 12.3417H130.592C129.63 12.3417 128.707 11.9593 128.027 11.2786C127.346 10.5978 126.964 9.67459 126.964 8.71191Z" fill="white"/>
<path d="M126.964 31.3486H158.855C158.855 32.3111 158.473 33.2344 157.793 33.9151C157.112 34.5959 156.19 34.9784 155.227 34.9784H130.592C129.63 34.9784 128.707 34.5959 128.027 33.9151C127.346 33.2344 126.964 32.3111 126.964 31.3486Z" fill="white"/>
<path opacity="0.7" d="M162.4 31.3486H194.275C194.275 32.3111 193.893 33.2344 193.212 33.9151C192.532 34.5959 191.609 34.9784 190.647 34.9784H166.028C165.066 34.9784 164.143 34.5959 163.463 33.9151C162.782 33.2344 162.4 32.3111 162.4 31.3486Z" fill="white"/>
<path d="M90.0928 8.71191H121.968C121.968 9.67459 121.585 10.5978 120.905 11.2786C120.225 11.9593 119.302 12.3417 118.34 12.3417H93.7205C92.7583 12.3417 91.8358 11.9593 91.1553 11.2786C90.475 10.5978 90.0928 9.67459 90.0928 8.71191Z" fill="white"/>
<path d="M41.4649 60.5029L33.9289 56.5596L25.4531 57.3186L29.3779 49.7786L28.6194 41.2979L36.1716 45.2249L44.6474 44.4659L40.7064 52.0224L41.4649 60.5029Z" fill="white"/>
<path d="M35.9904 75.9461C37.5659 75.9461 38.8432 74.6681 38.8432 73.0918C38.8432 71.5153 37.5659 70.2373 35.9904 70.2373C34.4149 70.2373 33.1377 71.5153 33.1377 73.0918C33.1377 74.6681 34.4149 75.9461 35.9904 75.9461Z" fill="white"/>
<path d="M187.135 9.61916H173.267C172.83 9.61916 172.41 9.44534 172.101 9.13591C171.792 8.82651 171.618 8.40684 171.618 7.96926C171.618 7.53169 171.792 7.11201 172.101 6.80259C172.41 6.49319 172.83 6.31934 173.267 6.31934H187.085C187.523 6.31934 187.942 6.49319 188.251 6.80259C188.561 7.11201 188.734 7.53169 188.734 7.96926C188.734 8.40684 188.561 8.82651 188.251 9.13591C187.942 9.44534 187.523 9.61916 187.085 9.61916H187.135Z" fill="#272B3A"/>
<path d="M175.675 215H74.5595C70.559 214.983 66.728 213.382 63.904 210.547C61.0798 207.712 59.492 203.873 59.4878 199.871V21.449C59.4923 17.4377 61.0868 13.592 63.9215 10.7556C66.7563 7.91914 70.5998 6.32371 74.6088 6.31934H160.191C160.628 6.31934 161.047 6.49319 161.357 6.80259C161.666 7.11201 161.84 7.53169 161.84 7.96926C161.84 8.40684 161.666 8.82651 161.357 9.13591C161.047 9.44534 160.628 9.61916 160.191 9.61916H74.5595C71.4338 9.63659 68.4415 10.8901 66.236 13.1063C64.0303 15.3225 62.79 18.3214 62.7858 21.449V199.871C62.79 203.007 64.0373 206.013 66.2535 208.231C68.4698 210.448 71.4745 211.696 74.6088 211.7H175.724C176.161 211.7 176.581 211.874 176.89 212.184C177.199 212.493 177.373 212.913 177.373 213.35C177.373 213.788 177.199 214.208 176.89 214.517C176.581 214.826 176.161 215 175.724 215H175.675Z" fill="#272B3A"/>
<path d="M203.13 215H184.991C184.554 215 184.135 214.826 183.825 214.517C183.516 214.207 183.342 213.788 183.342 213.35C183.342 212.912 183.516 212.493 183.825 212.183C184.135 211.874 184.554 211.7 184.991 211.7H203.13C203.567 211.7 203.987 211.874 204.296 212.183C204.605 212.493 204.779 212.912 204.779 213.35C204.779 213.788 204.605 214.207 204.296 214.517C203.987 214.826 203.567 215 203.13 215Z" fill="#272B3A"/>
<path d="M211.441 215H210.089C209.651 215 209.232 214.826 208.923 214.517C208.614 214.207 208.44 213.788 208.44 213.35C208.44 212.912 208.614 212.493 208.923 212.183C209.232 211.874 209.651 211.7 210.089 211.7H211.441C211.878 211.7 212.298 211.874 212.607 212.183C212.916 212.493 213.09 212.912 213.09 213.35C213.09 213.788 212.916 214.207 212.607 214.517C212.298 214.826 211.878 215 211.441 215Z" fill="#272B3A"/>
<path d="M322.713 215H219.274C218.836 215 218.417 214.827 218.108 214.517C217.798 214.208 217.625 213.788 217.625 213.35C217.625 212.913 217.798 212.493 218.108 212.184C218.417 211.874 218.836 211.701 219.274 211.701H322.713C325.85 211.701 328.858 210.454 331.075 208.236C333.29 206.017 334.538 203.008 334.538 199.871V105.215C334.538 104.778 334.71 104.358 335.02 104.049C335.33 103.739 335.748 103.565 336.185 103.565C336.623 103.565 337.043 103.739 337.353 104.049C337.66 104.358 337.835 104.778 337.835 105.215V199.871C337.83 203.882 336.235 207.728 333.4 210.564C330.565 213.401 326.723 214.996 322.713 215Z" fill="#272B3A"/>
<path d="M336.185 97.9888C335.748 97.9888 335.33 97.815 335.02 97.5055C334.71 97.196 334.538 96.7765 334.538 96.3388V93.732C334.538 93.2943 334.71 92.8748 335.02 92.5653C335.33 92.2558 335.748 92.082 336.185 92.082C336.623 92.082 337.043 92.2558 337.353 92.5653C337.66 92.8748 337.835 93.2943 337.835 93.732V96.3388C337.835 96.7765 337.66 97.196 337.353 97.5055C337.043 97.815 336.623 97.9888 336.185 97.9888Z" fill="#272B3A"/>
<path d="M336.185 86.7196C335.748 86.7196 335.33 86.5456 335.02 86.2363C334.71 85.9268 334.538 85.5071 334.538 85.0696V71.1773C334.538 70.7398 334.71 70.3201 335.02 70.0106C335.33 69.7013 335.748 69.5273 336.185 69.5273C336.623 69.5273 337.043 69.7013 337.353 70.0106C337.66 70.3201 337.835 70.7398 337.835 71.1773V85.0696C337.835 85.5071 337.66 85.9268 337.353 86.2363C337.043 86.5456 336.623 86.7196 336.185 86.7196Z" fill="#272B3A"/>
<path d="M336.185 59.958C335.748 59.958 335.33 59.7843 335.02 59.4748C334.71 59.1653 334.538 58.7458 334.538 58.308V21.449C334.538 18.3116 333.29 15.3026 331.075 13.0841C328.858 10.8655 325.85 9.61916 322.713 9.61916H205.752C205.315 9.61916 204.895 9.44534 204.586 9.13591C204.277 8.82651 204.103 8.40684 204.103 7.96926C204.103 7.53169 204.277 7.11201 204.586 6.80259C204.895 6.49319 205.315 6.31934 205.752 6.31934H322.713C326.723 6.32371 330.568 7.91914 333.4 10.7556C336.235 13.592 337.83 17.4377 337.835 21.449V58.308C337.835 58.7458 337.66 59.1653 337.353 59.4748C337.043 59.7843 336.623 59.958 336.185 59.958Z" fill="#272B3A"/>
<path d="M196.353 9.61916H194.358C193.921 9.61916 193.501 9.44534 193.192 9.13591C192.883 8.82651 192.709 8.40684 192.709 7.96926C192.709 7.53169 192.883 7.11201 193.192 6.80259C193.501 6.49319 193.921 6.31934 194.358 6.31934H196.353C196.79 6.31934 197.21 6.49319 197.519 6.80259C197.828 7.11201 198.002 7.53169 198.002 7.96926C198.002 8.40684 197.828 8.82651 197.519 9.13591C197.21 9.44534 196.79 9.61916 196.353 9.61916Z" fill="#272B3A"/>
<path d="M118.835 23.3296C120.765 23.3296 122.331 21.7636 122.331 19.8318C122.331 17.9 120.765 16.334 118.835 16.334C116.904 16.334 115.339 17.9 115.339 19.8318C115.339 21.7636 116.904 23.3296 118.835 23.3296Z" fill="#272B3A"/>
<path d="M128.893 23.3296C130.824 23.3296 132.389 21.7636 132.389 19.8318C132.389 17.9 130.824 16.334 128.893 16.334C126.962 16.334 125.397 17.9 125.397 19.8318C125.397 21.7636 126.962 23.3296 128.893 23.3296Z" fill="#272B3A"/>
<path d="M139.414 23.3296C141.344 23.3296 142.909 21.7636 142.909 19.8318C142.909 17.9 141.344 16.334 139.414 16.334C137.483 16.334 135.918 17.9 135.918 19.8318C135.918 21.7636 137.483 23.3296 139.414 23.3296Z" fill="#272B3A"/>
<path d="M119.066 24.1387C118.212 24.1387 117.377 23.8856 116.667 23.4113C115.957 22.937 115.403 22.2629 115.076 21.474C114.748 20.685 114.662 19.8167 114.827 18.9786C114.992 18.1406 115.402 17.3703 116.005 16.7651C116.607 16.1599 117.376 15.7469 118.213 15.5782C119.05 15.4096 119.918 15.4928 120.707 15.8175C121.497 16.1421 122.173 16.6936 122.65 17.4023C123.126 18.111 123.383 18.9452 123.386 19.7994C123.388 20.3685 123.278 20.9324 123.062 21.4587C122.846 21.9851 122.528 22.4636 122.126 22.8668C121.725 23.2699 121.248 23.5898 120.723 23.8081C120.197 24.0263 119.634 24.1387 119.066 24.1387ZM119.066 17.1596C118.536 17.1596 118.018 17.3172 117.578 17.6124C117.138 17.9076 116.796 18.327 116.595 18.8173C116.393 19.3077 116.342 19.8468 116.448 20.3661C116.554 20.8855 116.812 21.3617 117.189 21.7341C117.565 22.1066 118.045 22.3585 118.565 22.4579C119.085 22.5573 119.623 22.4996 120.111 22.2922C120.598 22.0849 121.013 21.7371 121.303 21.2933C121.592 20.8494 121.743 20.3294 121.737 19.7994C121.724 19.0976 121.437 18.4287 120.938 17.9354C120.439 17.4422 119.767 17.1638 119.066 17.1596Z" fill="#272B3A"/>
<path d="M129.124 24.1387C128.271 24.1387 127.436 23.8856 126.726 23.4113C126.016 22.937 125.462 22.2629 125.135 21.474C124.807 20.685 124.721 19.8167 124.886 18.9786C125.051 18.1406 125.461 17.3703 126.064 16.7651C126.666 16.1599 127.434 15.7469 128.271 15.5782C129.108 15.4096 129.977 15.4928 130.766 15.8175C131.556 16.1421 132.232 16.6936 132.709 17.4023C133.185 18.111 133.441 18.9452 133.445 19.7994C133.447 20.3685 133.337 20.9324 133.121 21.4587C132.904 21.9851 132.587 22.4636 132.185 22.8668C131.784 23.2699 131.307 23.5898 130.781 23.8081C130.256 24.0263 129.693 24.1387 129.124 24.1387ZM129.124 17.1596C128.595 17.1596 128.077 17.3172 127.637 17.6124C127.197 17.9076 126.855 18.327 126.653 18.8173C126.452 19.3077 126.401 19.8468 126.507 20.3661C126.613 20.8855 126.871 21.3617 127.247 21.7341C127.624 22.1066 128.103 22.3585 128.624 22.4579C129.144 22.5573 129.682 22.4996 130.17 22.2922C130.657 22.0849 131.072 21.7371 131.362 21.2933C131.651 20.8494 131.802 20.3294 131.796 19.7994C131.783 19.0976 131.496 18.4287 130.997 17.9354C130.498 17.4422 129.826 17.1638 129.124 17.1596Z" fill="#272B3A"/>
<path d="M139.644 24.1387C138.791 24.1387 137.956 23.8856 137.246 23.4113C136.536 22.937 135.982 22.2629 135.655 21.474C135.327 20.685 135.241 19.8167 135.406 18.9786C135.571 18.1406 135.981 17.3703 136.584 16.7651C137.186 16.1599 137.954 15.7469 138.791 15.5782C139.628 15.4096 140.497 15.4928 141.286 15.8175C142.076 16.1421 142.752 16.6936 143.229 17.4023C143.705 18.111 143.961 18.9452 143.965 19.7994C143.969 20.3691 143.86 20.934 143.645 21.4613C143.43 21.9887 143.112 22.468 142.71 22.8716C142.308 23.2752 141.83 23.595 141.304 23.8125C140.778 24.03 140.214 24.1409 139.644 24.1387ZM139.644 17.1596C139.115 17.1596 138.597 17.3172 138.157 17.6124C137.717 17.9076 137.375 18.327 137.173 18.8173C136.972 19.3077 136.921 19.8468 137.027 20.3661C137.133 20.8855 137.391 21.3617 137.767 21.7341C138.144 22.1066 138.623 22.3585 139.144 22.4579C139.664 22.5573 140.202 22.4996 140.69 22.2922C141.177 22.0849 141.592 21.7371 141.882 21.2933C142.171 20.8494 142.322 20.3294 142.316 19.7994C142.307 19.0963 142.022 18.4249 141.522 17.9307C141.022 17.4366 140.347 17.1595 139.644 17.1596Z" fill="#272B3A"/>
<path d="M298.59 68.2899H198.645C197.77 68.2899 196.931 67.9424 196.313 67.3234C195.695 66.7047 195.347 65.8654 195.347 64.9902C195.347 64.1149 195.695 63.2757 196.313 62.6569C196.931 62.0379 197.77 61.6904 198.645 61.6904H298.59C299.465 61.6904 300.303 62.0379 300.92 62.6569C301.54 63.2757 301.888 64.1149 301.888 64.9902C301.888 65.8654 301.54 66.7047 300.92 67.3234C300.303 67.9424 299.465 68.2899 298.59 68.2899Z" fill="#272B3A"/>
<path d="M232.63 83.964H198.645C197.77 83.964 196.931 83.6163 196.313 82.9975C195.695 82.3785 195.347 81.5393 195.347 80.664C195.347 79.789 195.695 78.9495 196.313 78.3308C196.931 77.712 197.77 77.3643 198.645 77.3643H232.63C233.505 77.3643 234.344 77.712 234.962 78.3308C235.581 78.9495 235.928 79.789 235.928 80.664C235.928 81.5393 235.581 82.3785 234.962 82.9975C234.344 83.6163 233.505 83.964 232.63 83.964Z" fill="#272B3A"/>
<path d="M232.63 119.636H198.645C197.77 119.636 196.931 119.288 196.313 118.669C195.695 118.05 195.347 117.211 195.347 116.336C195.347 115.461 195.695 114.621 196.313 114.003C196.931 113.384 197.77 113.036 198.645 113.036H232.63C233.505 113.036 234.344 113.384 234.962 114.003C235.581 114.621 235.928 115.461 235.928 116.336C235.928 117.211 235.581 118.05 234.962 118.669C234.344 119.288 233.505 119.636 232.63 119.636Z" fill="#36E39B"/>
<path d="M278.043 99.6388H258.883C258.008 99.6388 257.168 99.2911 256.55 98.6723C255.93 98.0536 255.583 97.2141 255.583 96.3391C255.583 95.4638 255.93 94.6246 256.55 94.0056C257.168 93.3868 258.008 93.0391 258.883 93.0391H278.043C278.918 93.0391 279.758 93.3868 280.375 94.0056C280.993 94.6246 281.34 95.4638 281.34 96.3391C281.34 97.2141 280.993 98.0536 280.375 98.6723C279.758 99.2911 278.918 99.6388 278.043 99.6388Z" fill="#272B3A"/>
<path opacity="0.8" d="M308.17 99.6388H289.007C288.135 99.6388 287.295 99.2911 286.677 98.6723C286.057 98.0536 285.71 97.2141 285.71 96.3391C285.71 95.4638 286.057 94.6246 286.677 94.0056C287.295 93.3868 288.135 93.0391 289.007 93.0391H308.17C309.045 93.0391 309.882 93.3868 310.502 94.0056C311.12 94.6246 311.467 95.4638 311.467 96.3391C311.467 97.2141 311.12 98.0536 310.502 98.6723C309.882 99.2911 309.045 99.6388 308.17 99.6388Z" fill="#272B3A"/>
<path d="M217.79 99.6388H198.645C197.77 99.6388 196.931 99.2911 196.313 98.6723C195.695 98.0536 195.347 97.2141 195.347 96.3391C195.347 95.4638 195.695 94.6246 196.313 94.0056C196.931 93.3868 197.77 93.0391 198.645 93.0391H217.79C218.664 93.0391 219.503 93.3868 220.122 94.0056C220.74 94.6246 221.088 95.4638 221.088 96.3391C221.088 97.2141 220.74 98.0536 220.122 98.6723C219.503 99.2911 218.664 99.6388 217.79 99.6388Z" fill="#272B3A"/>
<path opacity="0.3" d="M247.916 99.6388H228.771C227.897 99.6388 227.058 99.2911 226.439 98.6723C225.821 98.0536 225.474 97.2141 225.474 96.3391C225.474 95.4638 225.821 94.6246 226.439 94.0056C227.058 93.3868 227.897 93.0391 228.771 93.0391H247.916C248.791 93.0391 249.63 93.3868 250.247 94.0056C250.867 94.6246 251.215 95.4638 251.215 96.3391C251.215 97.2141 250.867 98.0536 250.247 98.6723C249.63 99.2911 248.791 99.6388 247.916 99.6388Z" fill="#272B3A"/>
<path d="M298.59 137.108H198.645C197.77 137.108 196.931 136.76 196.313 136.141C195.695 135.522 195.347 134.683 195.347 133.808C195.347 132.933 195.695 132.093 196.313 131.474C196.931 130.856 197.77 130.508 198.645 130.508H298.59C299.465 130.508 300.303 130.856 300.92 131.474C301.54 132.093 301.888 132.933 301.888 133.808C301.888 134.683 301.54 135.522 300.92 136.141C300.303 136.76 299.465 137.108 298.59 137.108Z" fill="#272B3A"/>
<path d="M232.63 152.782H198.645C197.77 152.782 196.931 152.435 196.313 151.816C195.695 151.197 195.347 150.358 195.347 149.483C195.347 148.607 195.695 147.768 196.313 147.149C196.931 146.53 197.77 146.183 198.645 146.183H232.63C233.505 146.183 234.344 146.53 234.962 147.149C235.581 147.768 235.928 148.607 235.928 149.483C235.928 150.358 235.581 151.197 234.962 151.816C234.344 152.435 233.505 152.782 232.63 152.782Z" fill="#272B3A"/>
<path d="M232.63 188.453H198.645C197.77 188.453 196.931 188.106 196.313 187.487C195.695 186.868 195.347 186.029 195.347 185.153C195.347 184.278 195.695 183.439 196.313 182.82C196.931 182.201 197.77 181.854 198.645 181.854H232.63C233.505 181.854 234.344 182.201 234.962 182.82C235.581 183.439 235.928 184.278 235.928 185.153C235.928 186.029 235.581 186.868 234.962 187.487C234.344 188.106 233.505 188.453 232.63 188.453Z" fill="#36E39B"/>
<path d="M278.043 168.456H258.883C258.008 168.456 257.168 168.108 256.55 167.489C255.93 166.871 255.583 166.031 255.583 165.156C255.583 164.281 255.93 163.442 256.55 162.823C257.168 162.204 258.008 161.856 258.883 161.856H278.043C278.918 161.856 279.758 162.204 280.375 162.823C280.993 163.442 281.34 164.281 281.34 165.156C281.34 166.031 280.993 166.871 280.375 167.489C279.758 168.108 278.918 168.456 278.043 168.456Z" fill="#272B3A"/>
<path opacity="0.8" d="M308.17 168.456H289.007C288.135 168.456 287.295 168.108 286.677 167.489C286.057 166.871 285.71 166.031 285.71 165.156C285.71 164.281 286.057 163.442 286.677 162.823C287.295 162.204 288.135 161.856 289.007 161.856H308.17C309.045 161.856 309.882 162.204 310.502 162.823C311.12 163.442 311.467 164.281 311.467 165.156C311.467 166.031 311.12 166.871 310.502 167.489C309.882 168.108 309.045 168.456 308.17 168.456Z" fill="#272B3A"/>
<path d="M217.79 168.456H198.645C197.77 168.456 196.931 168.108 196.313 167.489C195.695 166.871 195.347 166.031 195.347 165.156C195.347 164.281 195.695 163.442 196.313 162.823C196.931 162.204 197.77 161.856 198.645 161.856H217.79C218.664 161.856 219.503 162.204 220.122 162.823C220.74 163.442 221.088 164.281 221.088 165.156C221.088 166.031 220.74 166.871 220.122 167.489C219.503 168.108 218.664 168.456 217.79 168.456Z" fill="#272B3A"/>
<path opacity="0.3" d="M247.916 168.456H228.771C227.897 168.456 227.058 168.108 226.439 167.489C225.821 166.871 225.474 166.031 225.474 165.156C225.474 164.281 225.821 163.442 226.439 162.823C227.058 162.204 227.897 161.856 228.771 161.856H247.916C248.791 161.856 249.63 162.204 250.247 162.823C250.867 163.442 251.215 164.281 251.215 165.156C251.215 166.031 250.867 166.871 250.247 167.489C249.63 168.108 248.791 168.456 247.916 168.456Z" fill="#272B3A"/>
<path d="M122.462 58.8355C122.462 66.3877 120.975 73.8662 118.086 80.8435C115.197 87.8207 110.963 94.16 105.625 99.4995C100.287 104.839 93.9498 109.074 86.9758 111.963C80.0015 114.852 72.527 116.337 64.979 116.335C64.138 116.335 63.33 116.335 62.456 116.335H61.9615C50.336 115.752 39.1673 111.624 29.9548 104.505L29.493 104.159C28.6358 103.482 27.8443 102.773 26.9868 102.063C16.1697 92.5895 9.29285 79.4045 7.71238 65.108C6.1319 50.8115 9.9625 36.4415 18.4488 24.8314C26.935 13.2214 39.461 5.21432 53.5563 2.38911C67.6518 -0.436108 82.2938 2.12563 94.5945 9.56915C96.0788 10.4601 97.5133 11.417 98.8985 12.4235L99.1128 12.572C104.413 16.4907 109.008 21.2834 112.7 26.7447C116.653 32.5902 119.488 39.119 121.061 45.9992C121.226 46.7087 121.374 47.4347 121.506 48.1605C122.156 51.6815 122.476 55.2552 122.462 58.8355Z" fill="#36E39B"/>
<path d="M123.04 59.661C123.031 74.9095 116.971 89.5303 106.192 100.31C95.4125 111.089 80.7965 117.144 65.5567 117.144C65.0785 117.144 64.5837 117.144 64.1055 117.144C63.9407 117.144 63.7757 117.144 63.6107 117.144C52.0682 116.779 40.908 112.918 31.6042 106.073L31.1425 105.727C30.3675 105.149 29.5925 104.555 28.8505 103.928C24.134 100.003 20.0709 95.3525 16.813 90.1513C17.1098 90.3493 17.4231 90.5307 17.7364 90.7122C19.5017 91.7937 21.3298 92.7688 23.211 93.6325C30.7337 97.1035 38.9195 98.8993 47.2035 98.8958C52.7357 98.9 58.2395 98.1055 63.545 96.5365L64.0395 96.388C74.4502 93.2073 83.745 87.1357 90.844 78.879C97.9427 70.6225 102.554 60.5197 104.143 49.745C104.258 49.019 104.34 48.3095 104.423 47.5835C104.641 45.523 104.751 43.4522 104.753 41.38C104.754 37.7815 104.417 34.1907 103.747 30.6555C103.013 26.7402 101.869 22.9133 100.333 19.2381C99.5917 17.4459 98.755 15.6945 97.827 13.9914C97.2995 13.0179 96.7552 12.061 96.178 11.137L96.0132 10.873C97.5565 11.833 99.0482 12.8739 100.482 13.9914L100.68 14.1399C105.465 17.8618 109.633 22.3164 113.03 27.3392C117.236 33.4782 120.195 40.385 121.737 47.666C121.902 48.3755 122.05 49.1015 122.166 49.8275C122.737 53.0742 123.029 56.3642 123.04 59.661Z" fill="#36E39B"/>
<path d="M64.9956 79.0145C63.7321 79.0162 62.5099 78.5655 61.5494 77.7442L48.1266 66.1947C47.5611 65.7982 47.0849 65.2877 46.7284 64.6957C46.3719 64.104 46.1434 63.444 46.0571 62.7585C45.9711 62.0727 46.0294 61.3767 46.2284 60.715C46.4274 60.0535 46.7626 59.4407 47.2124 58.9165C47.6624 58.3922 48.2169 57.968 48.8406 57.6712C49.4641 57.3745 50.1431 57.2115 50.8334 57.1932C51.5239 57.1747 52.2104 57.301 52.8489 57.5642C53.4876 57.8272 54.0639 58.2212 54.5411 58.7207L64.0559 66.8877L77.6269 46.9567C77.9916 46.4152 78.4596 45.9507 79.0039 45.59C79.5481 45.2292 80.1581 44.9792 80.7989 44.8545C81.4399 44.7295 82.0989 44.7322 82.7386 44.8622C83.3784 44.9922 83.9864 45.247 84.5279 45.6122C85.0691 45.9772 85.5334 46.4455 85.8939 46.99C86.2544 47.5345 86.5041 48.145 86.6289 48.786C86.7539 49.4272 86.7511 50.0867 86.6211 50.727C86.4914 51.367 86.2366 51.9752 85.8716 52.517L69.3819 76.7047C68.9596 77.3215 68.4126 77.843 67.7764 78.2352C67.1401 78.6272 66.4289 78.8817 65.6884 78.9815C65.4584 79.0087 65.2271 79.0197 64.9956 79.0145Z" fill="white"/>
<g opacity="0.15">
<path opacity="0.15" d="M42.9157 36.9253C48.7077 36.9253 53.4032 32.2273 53.4032 26.432C53.4032 20.6366 48.7077 15.9385 42.9157 15.9385C37.1235 15.9385 32.4282 20.6366 32.4282 26.432C32.4282 32.2273 37.1235 36.9253 42.9157 36.9253Z" fill="white"/>
<path opacity="0.15" d="M30.8287 47.1712C33.7247 47.1712 36.0725 44.8222 36.0725 41.9245C36.0725 39.0267 33.7247 36.6777 30.8287 36.6777C27.9327 36.6777 25.585 39.0267 25.585 41.9245C25.585 44.8222 27.9327 47.1712 30.8287 47.1712Z" fill="white"/>
</g>
<path d="M8.07329 68.9836C7.67314 68.9876 7.28524 68.8459 6.98187 68.5846C6.67847 68.3236 6.48032 67.9611 6.42432 67.5646C6.04227 64.7816 5.84944 61.9759 5.84717 59.1666C5.84717 58.7291 6.02089 58.3094 6.33014 57.9999C6.63939 57.6906 7.05879 57.5166 7.49614 57.5166C7.93347 57.5166 8.35289 57.6906 8.66214 57.9999C8.97139 58.3094 9.14512 58.7291 9.14512 59.1666C9.14464 61.8214 9.32647 64.4729 9.68927 67.1026C9.75224 67.5236 9.65014 67.9529 9.40429 68.3004C9.15847 68.6476 8.78789 68.8866 8.37009 68.9671L8.07329 68.9836Z" fill="#272B3A"/>
<path d="M11.1565 81.0597C10.8224 81.0575 10.4968 80.9537 10.223 80.7622C9.9491 80.5707 9.73985 80.3005 9.62293 79.9872C8.8813 78.009 8.24283 75.9932 7.7101 73.9485C7.65558 73.7385 7.64308 73.5195 7.67328 73.3045C7.70348 73.0895 7.7758 72.8825 7.8861 72.6955C7.9964 72.5085 8.1425 72.3452 8.31603 72.2147C8.48958 72.0845 8.68713 71.9895 8.89738 71.9357C9.10743 71.8812 9.32618 71.8687 9.54108 71.8987C9.756 71.929 9.96283 72.0015 10.1497 72.1117C10.3366 72.2222 10.4999 72.3682 10.6302 72.542C10.7605 72.7157 10.8553 72.9132 10.9091 73.1237C11.4108 75.056 12.0107 76.9612 12.7065 78.8322C12.8567 79.2395 12.8406 79.6895 12.6616 80.0847C12.4825 80.48 12.1551 80.7887 11.7501 80.9442C11.562 81.0222 11.3601 81.0615 11.1565 81.0597Z" fill="#272B3A"/>
<path d="M26.3104 55.5689C26.9664 55.5689 27.5956 55.3081 28.0594 54.8439C28.5231 54.3799 28.7839 53.7504 28.7839 53.0939C28.7839 52.4376 28.5231 51.8081 28.0594 51.3439C27.5956 50.8799 26.9664 50.6191 26.3104 50.6191C25.6544 50.6191 25.0252 50.8799 24.5614 51.3439C24.0975 51.8081 23.8369 52.4376 23.8369 53.0939C23.8369 53.7504 24.0975 54.3799 24.5614 54.8439C25.0252 55.3081 25.6544 55.5689 26.3104 55.5689Z" fill="#272B3A"/>
<path d="M31.0762 73.3557C29.6252 69.8077 28.7673 66.0452 28.5368 62.2187C28.372 59.8429 24.6617 59.8264 24.8266 62.2187C25.1182 66.6967 26.149 71.0954 27.8773 75.2364C28.8008 77.4309 31.9997 75.5334 31.0762 73.3557Z" fill="#272B3A"/>
<path d="M336.185 31.4804H115.652C115.215 31.4804 114.796 31.3067 114.486 30.9972C114.177 30.6877 114.003 30.2682 114.003 29.8304C114.003 29.3929 114.177 28.9732 114.486 28.6639C114.796 28.3544 115.215 28.1807 115.652 28.1807H336.185C336.623 28.1807 337.043 28.3544 337.353 28.6639C337.66 28.9732 337.835 29.3929 337.835 29.8304C337.835 30.2682 337.66 30.6877 337.353 30.9972C337.043 31.3067 336.623 31.4804 336.185 31.4804Z" fill="#272B3A"/>
<path d="M167.595 189.294H122.001H77.3135L114.02 125.657L136.347 164.364L144.789 149.746L167.595 189.294ZM127.64 185.994H161.889L144.789 156.296L136.347 170.914L114.02 132.257L83.019 185.961H127.657L127.64 185.994Z" fill="#272B3A"/>
<path d="M64.9795 118.315C64.1055 118.315 63.215 118.315 62.3575 118.315H61.797C49.8607 117.714 38.396 113.464 28.9492 106.139L28.537 105.842C27.5807 105.1 26.7397 104.374 25.8987 103.648C21.5258 99.7927 17.7472 95.3115 14.6857 90.3495C13.6424 88.6525 12.6901 86.901 11.833 85.1028C11.7183 84.907 11.6452 84.6898 11.6182 84.4645C11.5913 84.2393 11.611 84.0107 11.6762 83.7935C11.7414 83.5763 11.8507 83.3747 11.9973 83.2018C12.1439 83.0288 12.3245 82.8877 12.528 82.7875C12.7315 82.6875 12.9534 82.6305 13.1799 82.62C13.4064 82.6095 13.6326 82.646 13.8444 82.727C14.0561 82.808 14.2489 82.932 14.4107 83.0908C14.5725 83.2497 14.6998 83.4405 14.7847 83.6507C15.6092 85.3008 16.4336 86.9505 17.489 88.518C20.3998 93.212 23.9958 97.4443 28.1577 101.074C28.9492 101.75 29.8067 102.443 30.5817 103.12L31.0435 103.45C39.9802 110.39 50.829 114.421 62.1267 114.999H62.539C63.4295 114.999 64.188 114.999 65.062 114.999C79.846 114.964 94.014 109.069 104.463 98.6045C114.913 88.1397 120.792 73.9587 120.814 59.166C120.815 55.6668 120.484 52.1753 119.824 48.7388C119.692 48.0293 119.56 47.3197 119.395 46.6432C117.889 40.002 115.166 33.6975 111.365 28.0487L111.266 27.9002C107.709 22.6256 103.282 17.9948 98.1732 14.206L97.926 14.041C96.4747 12.9411 95.0567 12.0006 93.6715 11.2197C85.866 6.5421 77.0362 3.844 67.9505 3.36017C58.865 2.87635 49.7987 4.62148 41.5412 8.44365C33.2835 12.2658 26.0842 18.0493 20.5704 25.2908C15.0564 32.532 11.3946 41.012 9.90372 49.9925C9.76749 50.343 9.51579 50.6362 9.19027 50.824C8.86474 51.0115 8.48492 51.0825 8.11367 51.0247C7.74242 50.967 7.40199 50.7842 7.14877 50.5065C6.89554 50.2288 6.74469 49.8728 6.72119 49.4975C8.30694 39.9975 12.1855 31.028 18.0202 23.3673C23.855 15.7066 31.4697 9.58603 40.204 5.53667C48.9382 1.48735 58.528 -0.368488 68.1412 0.130186C77.7545 0.62886 87.1012 3.46697 95.37 8.39832C96.8375 9.28928 98.3382 10.2792 99.7892 11.3351L100.02 11.5001C105.43 15.4861 110.125 20.3621 113.904 25.9205L114.02 26.0853C118.098 32.09 121.018 38.8053 122.627 45.8843C122.792 46.6103 122.957 47.3528 123.089 48.1118C123.774 51.7513 124.122 55.4463 124.128 59.1495C124.111 74.8388 117.873 89.8802 106.783 100.973C95.6942 112.065 80.6597 118.302 64.9795 118.315Z" fill="#272B3A"/>
<g opacity="0.4">
<path opacity="0.4" d="M57.6906 40.3237C63.4826 40.3237 68.1781 35.6257 68.1781 29.8302C68.1781 24.035 63.4826 19.3369 57.6906 19.3369C51.8986 19.3369 47.2031 24.035 47.2031 29.8302C47.2031 35.6257 51.8986 40.3237 57.6906 40.3237Z" fill="#36E39B"/>
<path opacity="0.4" d="M45.6036 50.5694C48.4999 50.5694 50.8474 48.2204 50.8474 45.3229C50.8474 42.4252 48.4999 40.0762 45.6036 40.0762C42.7076 40.0762 40.3599 42.4252 40.3599 45.3229C40.3599 48.2204 42.7076 50.5694 45.6036 50.5694Z" fill="#36E39B"/>
</g>
<path d="M133.923 133.808C139.66 133.808 144.311 129.154 144.311 123.413C144.311 117.672 139.66 113.019 133.923 113.019C128.185 113.019 123.534 117.672 123.534 123.413C123.534 129.154 128.185 133.808 133.923 133.808Z" fill="#36E39B"/>
<path d="M134.5 135.458C132.119 135.458 129.791 134.752 127.812 133.428C125.832 132.105 124.289 130.224 123.378 128.023C122.467 125.822 122.229 123.4 122.693 121.064C123.158 118.728 124.304 116.581 125.988 114.897C127.671 113.213 129.816 112.065 132.151 111.601C134.486 111.136 136.907 111.374 139.106 112.286C141.306 113.198 143.186 114.741 144.508 116.722C145.831 118.703 146.537 121.031 146.537 123.414C146.533 126.607 145.263 129.668 143.007 131.925C140.75 134.183 137.691 135.454 134.5 135.458ZM134.5 114.686C132.77 114.686 131.08 115.199 129.642 116.16C128.205 117.122 127.085 118.489 126.424 120.088C125.763 121.686 125.591 123.445 125.929 125.142C126.268 126.839 127.102 128.397 128.326 129.619C129.55 130.842 131.108 131.673 132.805 132.009C134.501 132.344 136.259 132.169 137.855 131.504C139.452 130.84 140.816 129.717 141.774 128.276C142.733 126.836 143.242 125.144 143.239 123.414C143.235 121.097 142.312 118.877 140.674 117.241C139.035 115.605 136.815 114.686 134.5 114.686Z" fill="#272B3A"/>
</g>
</svg>
